<svg data-v-fde0c5aa="" xmlns="http://www.w3.org/2000/svg" viewBox="0 0 300 300" class="iconAbove"><!----><defs data-v-fde0c5aa=""><!----></defs><rect data-v-fde0c5aa="" fill="#156EAC" x="0" y="0" width="300px" height="300px" class="logo-background-square"></rect><defs data-v-fde0c5aa=""><!----></defs><g data-v-fde0c5aa="" id="3db28069-e56f-4a2f-841a-5cce642f9e71" fill="#ffffff" transform="matrix(9.761688232421875,0,0,9.761688232421875,20,128.0310473019254)"><path d="M2.98 9.08L2.98 9.08L2.98 9.08Q2.86 9.23 2.76 9.34L2.76 9.34L2.76 9.34Q2.65 9.45 2.54 9.53L2.54 9.53L2.54 9.53Q2.42 9.60 2.28 9.66L2.28 9.66L2.28 9.66Q2.14 9.71 1.96 9.73L1.96 9.73L1.96 9.73Q1.87 9.74 1.78 9.74L1.78 9.74L1.78 9.74Q1.68 9.75 1.57 9.73L1.57 9.73L1.57 9.73Q1.42 9.72 1.28 9.72L1.28 9.72L1.28 9.72Q1.13 9.72 0.98 9.69L0.98 9.69L0.98 9.69Q0.66 9.61 0.44 9.46L0.44 9.46L0.44 9.46Q0.22 9.31 0.10 9.07L0.10 9.07L0.10 9.07Q-0.05 8.74 0.27 8.73L0.27 8.73L0.27 8.73Q0.33 8.73 0.40 8.81L0.40 8.81L0.40 8.81Q0.47 8.89 0.51 8.93L0.51 8.93L0.51 8.93Q0.66 9.07 0.68 9.08L0.68 9.08L0.68 9.08L0.68 9.09L0.68 9.09Q1.02 9.32 1.57 9.32L1.57 9.32L1.58 9.32L1.59 9.32L1.59 9.32Q1.82 9.32 2.18 9.23L2.18 9.23L2.18 9.23Q2.54 9.14 2.65 8.87L2.65 8.87L2.65 8.87Q2.71 8.70 2.65 8.51L2.65 8.51L2.65 8.50L2.65 8.50Q2.48 8.14 1.99 8.02L1.99 8.02L1.15 7.80L1.15 7.80Q0.97 7.76 0.72 7.63L0.72 7.63L0.72 7.63Q0.59 7.56 0.49 7.51L0.49 7.51L0.49 7.51Q0.40 7.45 0.33 7.40L0.33 7.40L0.33 7.40Q0.05 7.19 0.01 6.99L0.01 6.99L0.01 6.99Q0 6.95 0 6.89L0 6.89L0 6.89Q0 6.83 0 6.74L0 6.74L0 6.74Q0 6.64 0.01 6.55L0.01 6.55L0.01 6.55Q0.03 6.46 0.04 6.36L0.04 6.36L0.04 6.36Q0.08 6.04 0.31 5.80L0.31 5.80L0.31 5.80Q0.41 5.69 0.56 5.62L0.56 5.62L0.56 5.62Q0.70 5.55 0.84 5.49L0.84 5.49L0.84 5.49Q1.03 5.40 1.24 5.40L1.24 5.40L1.24 5.40Q1.45 5.39 1.65 5.40L1.65 5.40L1.65 5.40Q2.32 5.42 2.70 5.87L2.70 5.87L2.70 5.87Q2.87 6.08 2.83 6.22L2.83 6.22L2.78 6.26L2.78 6.26Q2.67 6.32 2.52 6.19L2.52 6.19L2.52 6.19Q2.48 6.16 2.45 6.13L2.45 6.13L2.45 6.13Q2.41 6.09 2.38 6.06L2.38 6.06L2.38 6.06Q2.34 6.02 2.29 5.98L2.29 5.98L2.29 5.98Q2.24 5.95 2.17 5.91L2.17 5.91L2.15 5.90L2.13 5.90L2.13 5.90Q1.88 5.82 1.62 5.81L1.62 5.81L1.62 5.81Q1.35 5.80 1.07 5.86L1.07 5.86L1.07 5.86Q0.74 5.93 0.56 6.14L0.56 6.14L0.56 6.14Q0.38 6.34 0.38 6.67L0.38 6.67L0.38 6.69L0.39 6.70L0.39 6.70Q0.42 7.12 1.05 7.30L1.05 7.30L1.24 7.36L1.75 7.53L1.75 7.53Q1.87 7.57 1.98 7.62L1.98 7.62L1.98 7.62Q2.10 7.67 2.23 7.72L2.23 7.72L2.23 7.72Q2.42 7.81 2.58 7.90L2.58 7.90L2.58 7.90Q2.75 7.98 2.88 8.07L2.88 8.07L2.88 8.07Q2.98 8.13 3.03 8.22L3.03 8.22L3.03 8.22Q3.08 8.31 3.10 8.41L3.10 8.41L3.10 8.41Q3.12 8.51 3.11 8.62L3.11 8.62L3.11 8.62Q3.11 8.73 3.09 8.82L3.09 8.82L3.09 8.82Q3.08 8.89 3.05 8.96L3.05 8.96L3.05 8.96Q3.01 9.03 2.98 9.08ZM7.93 5.42L7.93 5.42L7.93 5.42Q8.13 5.41 8.13 5.63L8.13 5.63L8.13 5.63Q8.13 5.91 8.13 6.19L8.13 6.19L8.13 6.19Q8.13 6.46 8.09 6.75L8.09 6.75L8.09 6.75Q8.06 7.01 8.09 7.27L8.09 7.27L8.09 7.27Q8.12 7.53 8.12 7.79L8.12 7.79L8.12 7.84L8.09 8.31L8.09 8.31Q8.08 8.46 8.06 8.57L8.06 8.57L8.06 8.57Q8.04 8.69 8.03 8.76L8.03 8.76L8.01 8.79L8.00 8.84L8.00 8.85L8.00 8.85Q7.98 8.93 7.92 9.01L7.92 9.01L7.92 9.01Q7.87 9.10 7.80 9.18L7.80 9.18L7.80 9.18Q7.74 9.26 7.66 9.32L7.66 9.32L7.66 9.32Q7.59 9.39 7.53 9.45L7.53 9.45L7.53 9.45Q7.41 9.55 7.27 9.61L7.27 9.61L7.27 9.61Q7.14 9.67 6.99 9.70L6.99 9.70L6.99 9.70Q6.84 9.73 6.68 9.74L6.68 9.74L6.68 9.74Q6.53 9.75 6.38 9.75L6.38 9.75L6.38 9.75Q6.13 9.75 5.89 9.69L5.89 9.69L5.89 9.69Q5.65 9.63 5.43 9.50L5.43 9.50L5.43 9.50Q5.41 9.48 5.41 9.47L5.41 9.47L5.41 9.47Q5.39 9.47 5.38 9.45L5.38 9.45L5.38 9.45Q5.37 9.44 5.35 9.43L5.35 9.43L5.35 9.43Q5.33 9.41 5.32 9.40L5.32 9.40L5.32 9.40Q5.30 9.39 5.29 9.37L5.29 9.37L5.29 9.37Q4.95 9.01 4.85 8.47L4.85 8.47L4.85 8.47Q4.81 8.20 4.80 7.95L4.80 7.95L4.80 7.95Q4.79 7.69 4.80 7.44L4.80 7.44L4.80 7.44Q4.81 7.38 4.81 7.32L4.81 7.32L4.81 7.32Q4.82 7.27 4.83 7.21L4.83 7.21L4.83 7.21Q4.83 7.12 4.83 7.05L4.83 7.05L4.83 7.05Q4.83 6.97 4.82 6.90L4.82 6.90L4.82 6.90Q4.78 6.36 4.80 5.63L4.80 5.63L4.80 5.63Q4.81 5.48 4.98 5.42L4.98 5.42L4.98 5.42Q5.11 5.38 5.21 5.45L5.21 5.45L5.21 5.45Q5.26 5.50 5.26 5.57L5.26 5.57L5.26 5.57Q5.27 5.67 5.27 5.82L5.27 5.82L5.27 5.82Q5.26 5.97 5.26 6.17L5.26 6.17L5.26 6.17Q5.26 6.34 5.24 6.51L5.24 6.51L5.24 6.51Q5.23 6.68 5.23 6.84L5.23 6.84L5.23 6.84Q5.23 7.05 5.22 7.24L5.22 7.24L5.22 7.24Q5.20 7.44 5.20 7.64L5.20 7.64L5.20 7.64Q5.20 8.02 5.33 8.50L5.33 8.50L5.33 8.50Q5.34 8.56 5.36 8.61L5.36 8.61L5.36 8.61Q5.37 8.66 5.39 8.72L5.39 8.72L5.39 8.72Q5.49 9.04 5.70 9.16L5.70 9.16L5.70 9.16Q5.86 9.26 6.29 9.28L6.29 9.28L6.29 9.28Q6.34 9.29 6.40 9.30L6.40 9.30L6.40 9.30Q6.45 9.31 6.51 9.31L6.51 9.31L6.52 9.31L6.53 9.31L6.53 9.31Q6.86 9.31 7.10 9.19L7.10 9.19L7.10 9.19Q7.35 9.08 7.52 8.79L7.52 8.79L7.52 8.79Q7.66 8.56 7.66 8.08L7.66 8.08L7.66 8.08Q7.66 7.99 7.66 7.93L7.66 7.93L7.66 7.93Q7.66 7.86 7.66 7.82L7.66 7.82L7.66 7.82Q7.73 7.21 7.65 6.55L7.65 6.55L7.65 6.55Q7.64 6.46 7.67 6.22L7.67 6.22L7.67 6.22Q7.68 6.13 7.69 6.05L7.69 6.05L7.69 6.05Q7.70 5.97 7.70 5.92L7.70 5.92L7.70 5.92Q7.70 5.63 7.74 5.52L7.74 5.52L7.74 5.52Q7.79 5.42 7.93 5.42ZM13.56 5.56L13.56 5.56L13.56 5.56Q13.62 5.54 13.78 5.58L13.78 5.58L13.78 5.58Q13.94 5.62 13.97 5.68L13.97 5.68L13.97 5.68Q13.97 5.69 13.98 5.69L13.98 5.69L13.98 5.69Q14 5.89 14 6.28L14 6.28L14 6.79L14 6.79Q14.01 7 14.01 7.19L14.01 7.19L14.01 7.19Q14.02 7.38 14.01 7.58L14.01 7.58L14.01 7.58Q13.99 7.78 13.98 7.97L13.98 7.97L13.98 7.97Q13.97 8.16 13.98 8.35L13.98 8.35L13.98 8.35Q13.99 8.52 14 8.68L14 8.68L14 8.68Q14.01 8.84 14 9.00L14 9.00L13.98 9.32L13.98 9.32Q13.97 9.55 13.93 9.60L13.93 9.60L13.93 9.60Q13.86 9.71 13.76 9.71L13.76 9.71L13.76 9.71Q13.54 9.69 13.53 9.39L13.53 9.39L13.53 9.39Q13.51 8.95 13.53 8.51L13.53 8.51L13.53 8.51Q13.56 8.07 13.52 7.62L13.52 7.62L13.50 7.32L13.50 7.32Q13.49 7.10 13.32 7.08L13.32 7.08L13.32 7.08Q13.25 7.08 13.20 7.10L13.20 7.10L13.20 7.10Q13.15 7.13 13.12 7.18L13.12 7.18L13.12 7.18Q13.08 7.23 13.06 7.28L13.06 7.28L13.06 7.28Q13.04 7.34 13.02 7.39L13.02 7.39L13.02 7.39Q12.97 7.53 12.92 7.64L12.92 7.64L12.92 7.64Q12.88 7.75 12.84 7.83L12.84 7.83L12.84 7.83Q12.78 7.97 12.69 8.12L12.69 8.12L12.69 8.12Q12.61 8.26 12.53 8.40L12.53 8.40L12.53 8.40Q12.46 8.55 12.38 8.69L12.38 8.69L12.38 8.69Q12.31 8.82 12.24 8.96L12.24 8.96L12.24 8.96Q12.20 9.04 11.99 9.03L11.99 9.03L11.99 9.03Q11.85 9.03 11.78 8.95L11.78 8.95L11.78 8.95Q11.72 8.89 11.67 8.77L11.67 8.77L11.67 8.77Q11.61 8.66 11.53 8.49L11.53 8.49L11.53 8.49Q11.48 8.37 11.43 8.29L11.43 8.29L11.43 8.29Q11.39 8.20 11.35 8.15L11.35 8.15L11.35 8.15Q11.32 8.10 11.27 8.00L11.27 8.00L11.27 8.00Q11.22 7.90 11.15 7.74L11.15 7.74L10.96 7.35L10.96 7.35Q10.93 7.28 10.91 7.25L10.91 7.25L10.91 7.25Q10.88 7.21 10.88 7.20L10.88 7.20L10.88 7.20Q10.77 7.07 10.64 7.10L10.64 7.10L10.64 7.10Q10.47 7.12 10.47 7.40L10.47 7.40L10.47 7.40Q10.47 7.84 10.48 8.23L10.48 8.23L10.48 8.23Q10.49 8.61 10.50 8.96L10.50 8.96L10.50 8.96Q10.50 9.01 10.50 9.10L10.50 9.10L10.50 9.10Q10.50 9.18 10.49 9.30L10.49 9.30L10.49 9.30Q10.48 9.55 10.44 9.61L10.44 9.61L10.44 9.61Q10.37 9.71 10.23 9.70L10.23 9.70L10.23 9.70Q10.05 9.69 10.05 9.43L10.05 9.43L10.05 9.43Q10.05 9.13 10.04 8.82L10.04 8.82L10.04 8.82Q10.03 8.51 10.02 8.18L10.02 8.18L10.02 8.18Q10.01 8.03 10.02 7.90L10.02 7.90L10.02 7.90Q10.02 7.77 10.04 7.68L10.04 7.68L10.04 7.68Q10.06 7.51 10.06 7.38L10.06 7.38L10.06 7.38Q10.06 7.25 10.06 7.16L10.06 7.16L10.06 7.16Q10.05 7.05 10.04 6.93L10.04 6.93L10.04 6.93Q10.02 6.80 10.00 6.66L10.00 6.66L10.00 6.66Q9.98 6.46 10.01 6.18L10.01 6.18L10.01 6.18Q10.04 5.89 10.09 5.70L10.09 5.70L10.09 5.70Q10.11 5.62 10.13 5.58L10.13 5.58L10.13 5.58Q10.32 5.38 10.51 5.63L10.51 5.63L10.51 5.63Q10.58 5.73 10.65 5.84L10.65 5.84L10.65 5.84Q10.72 5.95 10.79 6.06L10.79 6.06L10.79 6.06Q10.90 6.22 10.99 6.41L10.99 6.41L10.99 6.41Q11.07 6.60 11.15 6.77L11.15 6.77L11.15 6.77Q11.23 6.95 11.30 7.09L11.30 7.09L11.30 7.09Q11.36 7.22 11.42 7.30L11.42 7.30L11.44 7.34L11.44 7.34Q11.52 7.46 11.57 7.58L11.57 7.58L11.57 7.58Q11.63 7.70 11.68 7.81L11.68 7.81L11.68 7.81Q11.83 8.13 11.99 8.14L11.99 8.14L11.99 8.14Q12.15 8.14 12.22 8.00L12.22 8.00L12.22 8.00Q12.25 7.93 12.28 7.86L12.28 7.86L12.28 7.86Q12.31 7.79 12.33 7.73L12.33 7.73L12.33 7.73Q12.38 7.62 12.44 7.49L12.44 7.49L12.44 7.49Q12.51 7.36 12.58 7.23L12.58 7.23L12.58 7.23Q12.73 6.99 12.88 6.75L12.88 6.75L12.88 6.75Q13.03 6.51 13.15 6.24L13.15 6.24L13.15 6.24Q13.19 6.16 13.24 6.06L13.24 6.06L13.24 6.06Q13.30 5.97 13.36 5.87L13.36 5.87L13.49 5.67L13.49 5.67Q13.49 5.65 13.51 5.63L13.51 5.63L13.51 5.63Q13.53 5.60 13.56 5.56ZM16.12 9.70L16.12 9.70L16.12 9.70Q15.90 9.67 15.90 9.44L15.90 9.44L15.90 9.44Q15.89 9.07 15.89 8.72L15.89 8.72L15.89 8.72Q15.89 8.36 15.89 7.99L15.89 7.99L15.89 7.99Q15.89 7.79 15.91 7.58L15.91 7.58L15.91 7.58Q15.93 7.43 15.93 7.30L15.93 7.30L15.93 7.30Q15.93 7.17 15.92 7.06L15.92 7.06L15.92 7.06Q15.91 6.99 15.91 6.90L15.91 6.90L15.91 6.90Q15.90 6.80 15.89 6.67L15.89 6.67L15.89 6.67Q15.89 6.60 15.90 6.51L15.90 6.51L15.90 6.51Q15.90 6.41 15.91 6.28L15.91 6.28L15.91 6.28Q15.91 6.19 15.92 6.11L15.92 6.11L15.92 6.11Q15.92 6.04 15.92 5.99L15.92 5.99L15.92 5.84L15.92 5.83L15.92 5.78L15.92 5.78Q15.90 5.61 15.93 5.54L15.93 5.54L15.93 5.54Q15.95 5.49 16.02 5.44L16.02 5.44L16.02 5.44Q16.28 5.30 16.34 5.61L16.34 5.61L16.34 5.61Q16.40 5.84 16.41 6.07L16.41 6.07L16.41 6.07Q16.42 6.29 16.40 6.51L16.40 6.51L16.40 6.51L16.40 6.51Q16.38 6.73 16.39 6.94L16.39 6.94L16.39 6.94Q16.40 7.15 16.38 7.36L16.38 7.36L16.38 7.36Q16.36 7.55 16.34 7.68L16.34 7.68L16.34 7.68Q16.33 7.82 16.32 7.92L16.32 7.92L16.32 7.92Q16.31 8.05 16.31 8.20L16.31 8.20L16.31 8.20Q16.31 8.35 16.32 8.51L16.32 8.51L16.32 8.51Q16.32 8.54 16.32 8.59L16.32 8.59L16.32 8.59Q16.32 8.63 16.32 8.70L16.32 8.70L16.32 8.70Q16.32 8.80 16.32 8.91L16.32 8.91L16.32 8.91Q16.32 9.02 16.33 9.13L16.33 9.13L16.33 9.13Q16.33 9.20 16.33 9.27L16.33 9.27L16.33 9.27Q16.34 9.33 16.33 9.40L16.33 9.40L16.33 9.40Q16.33 9.54 16.32 9.55L16.32 9.55L16.32 9.55Q16.30 9.68 16.12 9.70ZM18.63 9.56L18.63 9.56L18.63 9.56Q18.60 9.68 18.42 9.70L18.42 9.70L18.42 9.70Q18.22 9.69 18.22 9.49L18.22 9.49L18.22 9.49Q18.22 8.96 18.20 8.41L18.20 8.41L18.20 8.41Q18.18 7.87 18.23 7.33L18.23 7.33L18.23 7.33L18.23 7.33Q18.23 7.17 18.23 7.02L18.23 7.02L18.23 7.02Q18.24 6.87 18.22 6.73L18.22 6.73L18.17 6.21L18.17 6.21Q18.15 5.99 18.24 5.74L18.24 5.74L18.24 5.74Q18.31 5.56 18.42 5.52L18.42 5.52L18.42 5.52Q18.52 5.50 18.62 5.62L18.62 5.62L18.62 5.62Q18.72 5.72 18.76 5.80L18.76 5.80L18.76 5.80Q18.85 5.93 18.95 6.03L18.95 6.03L18.95 6.03Q19.04 6.13 19.13 6.22L19.13 6.22L19.13 6.22Q19.20 6.31 19.28 6.37L19.28 6.37L19.28 6.37Q19.36 6.44 19.43 6.52L19.43 6.52L19.43 6.52Q19.50 6.59 19.58 6.70L19.58 6.70L19.58 6.70Q19.67 6.80 19.76 6.95L19.76 6.95L20.06 7.41L20.06 7.41Q20.10 7.46 20.14 7.52L20.14 7.52L20.14 7.52Q20.17 7.58 20.23 7.66L20.23 7.66L20.23 7.67L20.23 7.67Q20.38 7.86 20.54 8.03L20.54 8.03L20.54 8.03Q20.61 8.11 20.69 8.19L20.69 8.19L20.69 8.19Q20.76 8.26 20.84 8.33L20.84 8.33L20.84 8.33Q20.92 8.42 21.02 8.39L21.02 8.39L21.02 8.39Q21.18 8.35 21.17 8.07L21.17 8.07L21.17 8.07Q21.17 8.00 21.16 7.93L21.16 7.93L21.16 7.93Q21.15 7.85 21.15 7.78L21.15 7.78L21.15 7.78Q21.14 7.72 21.14 7.67L21.14 7.67L21.14 7.67Q21.13 7.62 21.13 7.56L21.13 7.56L21.13 7.56Q21.13 7.53 21.13 7.50L21.13 7.50L21.13 7.50Q21.12 7.46 21.12 7.42L21.12 7.42L21.12 7.42Q21.15 6.82 21.08 6.30L21.08 6.30L21.08 6.30Q21.08 6.27 21.08 6.19L21.08 6.19L21.08 6.19Q21.08 6.11 21.09 5.99L21.09 5.99L21.09 5.99Q21.10 5.84 21.13 5.67L21.13 5.67L21.13 5.67Q21.15 5.42 21.35 5.42L21.35 5.42L21.35 5.42Q21.57 5.42 21.57 5.68L21.57 5.68L21.57 5.68Q21.57 5.89 21.58 6.11L21.58 6.11L21.58 6.11Q21.59 6.32 21.59 6.54L21.59 6.54L21.59 6.54Q21.60 6.85 21.58 7.16L21.58 7.16L21.58 7.16Q21.56 7.48 21.57 7.79L21.57 7.79L21.57 7.79Q21.59 8.00 21.58 8.21L21.58 8.21L21.58 8.21Q21.58 8.42 21.57 8.62L21.57 8.62L21.57 8.62Q21.57 8.74 21.58 8.85L21.58 8.85L21.58 8.85Q21.58 8.96 21.58 9.06L21.58 9.06L21.58 9.34L21.58 9.34Q21.57 9.38 21.57 9.42L21.57 9.42L21.57 9.42Q21.57 9.46 21.57 9.50L21.57 9.50L21.57 9.50Q21.56 9.50 21.56 9.51L21.56 9.51L21.56 9.51Q21.56 9.52 21.55 9.52L21.55 9.52L21.55 9.52Q21.48 9.62 21.32 9.62L21.32 9.62L21.32 9.62Q21.14 9.63 21.04 9.50L21.04 9.50L21.04 9.50Q20.94 9.37 20.85 9.22L20.85 9.22L20.85 9.22Q20.77 9.07 20.67 8.93L20.67 8.93L20.67 8.93Q20.54 8.76 20.40 8.58L20.40 8.58L20.40 8.58Q20.25 8.39 20.07 8.18L20.07 8.18L20.07 8.18Q20.00 8.10 19.88 7.90L19.88 7.90L19.64 7.52L19.64 7.52Q19.55 7.38 19.46 7.24L19.46 7.24L19.46 7.24Q19.37 7.10 19.28 6.97L19.28 6.97L19.28 6.97Q19.24 6.92 19.19 6.87L19.19 6.87L19.19 6.87Q19.14 6.81 19.09 6.77L19.09 6.77L19.09 6.77Q19.03 6.73 18.96 6.71L18.96 6.71L18.96 6.71Q18.89 6.69 18.83 6.71L18.83 6.71L18.83 6.71Q18.64 6.76 18.66 7.08L18.66 7.08L18.66 7.08Q18.66 7.31 18.67 7.52L18.67 7.52L18.67 7.52Q18.67 7.72 18.68 7.90L18.68 7.90L18.68 7.90Q18.70 8.05 18.68 8.19L18.68 8.19L18.68 8.19Q18.66 8.33 18.66 8.47L18.66 8.47L18.66 9.00L18.66 9.00Q18.66 9.17 18.65 9.31L18.65 9.31L18.65 9.31Q18.64 9.45 18.63 9.56ZM26.26 9.06L26.26 9.06L26.26 9.06Q26.58 8.88 26.63 9.19L26.63 9.19L26.63 9.19Q26.66 9.32 26.50 9.44L26.50 9.44L26.50 9.44Q26.42 9.50 26.36 9.53L26.36 9.53L26.36 9.53Q26.29 9.57 26.24 9.59L26.24 9.59L26.24 9.59Q26.08 9.66 25.95 9.69L25.95 9.69L25.95 9.69Q25.83 9.72 25.73 9.73L25.73 9.73L25.73 9.73Q25.55 9.75 25.35 9.75L25.35 9.75L25.35 9.75Q25.16 9.75 24.94 9.71L24.94 9.71L24.94 9.71Q24.49 9.65 24.22 9.41L24.22 9.41L24.22 9.41Q23.97 9.19 23.80 8.89L23.80 8.89L23.80 8.89Q23.64 8.59 23.54 8.29L23.54 8.29L23.52 8.24L23.52 8.24Q23.46 8.05 23.48 7.80L23.48 7.80L23.48 7.80Q23.50 7.56 23.49 7.35L23.49 7.35L23.49 7.35Q23.49 7.18 23.50 7.06L23.50 7.06L23.50 7.06Q23.50 6.93 23.53 6.84L23.53 6.84L23.53 6.84Q23.58 6.67 23.75 6.38L23.75 6.38L23.75 6.38Q23.93 6.05 24.17 5.81L24.17 5.81L24.17 5.81Q24.40 5.57 24.79 5.49L24.79 5.49L24.79 5.49Q24.90 5.48 25.15 5.41L25.15 5.41L25.15 5.41Q25.22 5.39 25.32 5.37L25.32 5.37L25.32 5.37Q25.41 5.36 25.53 5.37L25.53 5.37L25.53 5.37Q25.61 5.37 25.73 5.39L25.73 5.39L25.73 5.39Q25.85 5.41 26.01 5.44L26.01 5.44L26.01 5.44Q26.12 5.48 26.35 5.58L26.35 5.58L26.35 5.58Q26.56 5.67 26.60 5.82L26.60 5.82L26.60 5.82Q26.61 5.88 26.58 5.94L26.58 5.94L26.58 5.94Q26.52 6.04 26.44 6.06L26.44 6.06L26.44 6.06Q26.39 6.08 26.32 6.06L26.32 6.06L26.32 6.06Q26.25 6.05 26.15 6.00L26.15 6.00L26.15 6.00Q26.01 5.93 25.89 5.88L25.89 5.88L25.89 5.88Q25.78 5.83 25.66 5.81L25.66 5.81L25.66 5.81Q25.54 5.78 25.41 5.79L25.41 5.79L25.41 5.79Q25.29 5.80 25.14 5.84L25.14 5.84L25.14 5.84Q24.78 5.95 24.64 6.02L24.64 6.02L24.64 6.02Q24.49 6.10 24.28 6.41L24.28 6.41L24.28 6.41Q24.12 6.65 24.03 6.91L24.03 6.91L24.03 6.91Q23.95 7.18 23.93 7.45L23.93 7.45L23.93 7.45Q23.92 7.73 23.98 8.00L23.98 8.00L23.98 8.00Q24.04 8.28 24.16 8.53L24.16 8.53L24.16 8.54L24.17 8.54L24.17 8.54Q24.46 9.08 25.01 9.22L25.01 9.22L25.01 9.22Q25.40 9.32 25.62 9.26L25.62 9.26L25.62 9.26Q25.68 9.26 25.74 9.24L25.74 9.24L25.74 9.24Q25.79 9.23 25.85 9.21L25.85 9.21L25.85 9.21Q26.09 9.17 26.26 9.06Z"></path></g><defs data-v-fde0c5aa=""><!----></defs><g data-v-fde0c5aa="" id="ce0259b8-9779-4009-a3cc-142c130e3b32" stroke="none" fill="#F6575E" transform="matrix(2.6753127574920654,0,0,2.6753127574920654,107.19365521093712,76.79249202590067)"><path d="M18.396 26.495L7.807 15.905 18.432 5.28l.707.707-9.918 9.918 9.882 9.883z"></path><path d="M23.194 1v4.194H19V1h4.194m1-1H18v6.194h6.194V0zM23.194 26.806V31H19v-4.194h4.194m1-1H18V32h6.194v-6.194z"></path></g><!----></svg>